<svg width="18" height="18" viewBox="0 0 18 18" fill="none" xmlns="http://www.w3.org/2000/svg">
<path d="M14.0326 5.40749C13.9629 5.33719 13.8799 5.28139 13.7885 5.24332C13.6971 5.20524 13.5991 5.18564 13.5001 5.18564C13.4011 5.18564 13.303 5.20524 13.2117 5.24332C13.1203 5.28139 13.0373 5.33719 12.9676 5.40749L7.38008 11.0025L5.03258 8.64749C4.96019 8.57756 4.87474 8.52257 4.7811 8.48567C4.68745 8.44877 4.58746 8.43067 4.48683 8.43241C4.38619 8.43415 4.28688 8.4557 4.19457 8.49582C4.10227 8.53594 4.01876 8.59385 3.94883 8.66624C3.87891 8.73863 3.82392 8.82408 3.78702 8.91773C3.75011 9.01137 3.73202 9.11136 3.73376 9.212C3.7355 9.31263 3.75704 9.41194 3.79716 9.50425C3.83728 9.59656 3.89519 9.68006 3.96758 9.74999L6.84758 12.63C6.91731 12.7003 7.00026 12.7561 7.09165 12.7942C7.18305 12.8322 7.28108 12.8518 7.38008 12.8518C7.47909 12.8518 7.57712 12.8322 7.66852 12.7942C7.75991 12.7561 7.84286 12.7003 7.91258 12.63L14.0326 6.50999C14.1087 6.43976 14.1695 6.35452 14.211 6.25964C14.2526 6.16477 14.274 6.06231 14.274 5.95874C14.274 5.85516 14.2526 5.75271 14.211 5.65783C14.1695 5.56296 14.1087 5.47772 14.0326 5.40749Z" fill="white"/>
</svg>
